# xmcd
#
# Track frame offsets: 
#        150
#        13256
#        26255
#        38822
#        51880
#        64824
#        70640
#        84914
#        92860
#        106535
#        122038
#        129339
#        142544
#        154535
#        167853
#        181513
#        193846
#        208690
#        222202
#        236848
#        251317
#        265450
#        279062
#        293513
#        306084
#        319682
#        333302
#
# Disc length: 4780 seconds
#
# Revision: 0
# Processed by: cddbd v1.5.2PL0 Copyright (c) Steve Scherf et al.
# Submitted via: ExactAudioCopyFreeDBPlugin 1.0
#
DISCID=6812aa1b
DTITLE=Various Artist - I've Got The Blues, But I'm Too Damn Mean To 
DTITLE=Cry [CD3)
DYEAR=2015
DGENRE=Blues
TTITLE0=Bob Campbell - Starvation Farm Blues
TTITLE1=Walter Davis - No Place To Go
TTITLE2=Blind Lemon Jefferson - One Dime Blues
TTITLE3=Mississippi John Hurt - Blue Harvest Blues
TTITLE4=Funny Paper Smith - Fool's Blues
TTITLE5=Vera Hall - Boll Weevil Blues (The Boll Weevil Holler)
TTITLE6=Charley Patton - Mississippi Boll Weevil Blues
TTITLE7=8 Unknown Girls - Hopali (Hop-a-lee)
TTITLE8=Alberta Hunter - Experience Blues
TTITLE9=Lonnie Johnson - Broken Levee Blues
TTITLE10=Charley Campbell - Eighteen Hundred And Ninety One (Ain't Wor
TTITLE10=king Song)
TTITLE11=Martha Copeland - Bank Failure Blues
TTITLE12=Jess Bradley - Hammer Ring
TTITLE13=George 'Bullet' Williams - The Escaped Convict - Take 2
TTITLE14=Bumble Bee Slim - I'm Having So Much Trouble
TTITLE15=Tom Bell - Worried Blues
TTITLE16=Leroy Carr and Scrapper Blackwell - Workhouse Blues
TTITLE17=Rev. F.W. McGee - The Sure Route Excursion To Hell - Part 1
TTITLE18=Sara Martin - Black Hearse Blues
TTITLE19=Bessie Smith - Washwoman Blues
TTITLE20=Sippie Wallace - Sud Bustin' Blues
TTITLE21=Rev. J.M. Gates - Hitler And Hell
TTITLE22=Mamie Smith - Don't Mess With Me
TTITLE23=Irene Scruggs - My Daddy's Calling Me
TTITLE24=Jim Jackson - I Heard The Voice Of A Pork Chop - Take 1
TTITLE25=Johnson-Nelson-Porkchop - G. Burns Gonna Rise Again
TTITLE26=Leadbelly - The Bourgeois Blues
EXTD=
EXTT0=
EXTT1=
EXTT2=
EXTT3=
EXTT4=
EXTT5=
EXTT6=
EXTT7=
EXTT8=
EXTT9=
EXTT10=
EXTT11=
EXTT12=
EXTT13=
EXTT14=
EXTT15=
EXTT16=
EXTT17=
EXTT18=
EXTT19=
EXTT20=
EXTT21=
EXTT22=
EXTT23=
EXTT24=
EXTT25=
EXTT26=
PLAYORDER=
